<svg width="639" height="470" viewBox="0 0 639 470" fill="none" xmlns="http://www.w3.org/2000/svg">
<path d="M90.9928 395.144C80.8688 404.391 79.052 412.739 80.5023 420.94C73.6995 407.202 63.8269 398.166 48.4515 404.45C31.1414 411.524 32.3439 427.551 39.1689 444.25L44.1628 456.469C53.4243 452.089 56.8863 450.674 62.283 448.469L107.086 430.158C112.482 427.952 115.944 426.537 125.622 423.176L124.165 419.612C114.904 423.992 111.442 425.406 106.045 427.612L86.6986 435.519L84.6179 430.428C79.9569 419.024 79.7196 409.139 92.8247 397.009C103.597 387.021 108.31 380.817 102.65 366.969L101.632 367.385C105.669 377.262 103.815 383.486 90.9928 395.144ZM43.9325 452.998L40.1871 443.833C34.6106 430.189 32.899 414.371 49.7 407.504C66.501 400.638 76.3585 413.127 81.935 426.771L85.6804 435.935L43.9325 452.998Z" fill="white"/>
<path d="M103.976 342.332C102.307 330.236 92.7514 324.559 80.2501 323.286L80.4004 324.375C91.7031 325.814 101.247 330.605 102.886 342.482C104.84 356.648 92.9891 365.723 79.695 367.557C76.9708 367.933 74.4345 368.06 71.977 367.955L66.5052 328.291C56.807 329.629 47.853 337.971 49.672 351.156C51.4909 364.341 63.9097 373.066 80.146 370.826C96.3822 368.586 106.02 357.152 103.976 342.332ZM70.8573 367.888C59.9567 366.949 52.1446 361.031 50.7616 351.006C49.1832 339.564 56.9311 332.943 65.8665 331.71L70.8573 367.888Z" fill="white"/>
<path d="M103.72 298.383C104.392 288.395 99.1793 282.311 91.7162 281.809C83.7043 281.27 79.8598 285.972 73.6851 295.81C68.0012 304.908 63.7821 311.901 57.197 311.458C51.4899 311.073 49.1587 306.396 49.6168 299.592C50.2152 290.702 55.6901 287.983 61.0395 287.131C65.3863 286.431 64.7594 282.64 62.7839 282.507C54.0228 286.548 49.0955 290.957 48.5193 299.518C47.9947 307.31 50.9031 313.239 57.7077 313.697C64.8416 314.177 68.7082 309.146 74.8903 299.198C81.4385 288.724 84.4345 283.524 91.5684 284.004C98.2632 284.455 103.251 288.98 102.623 298.309C101.84 309.942 93.8308 315.908 86.8436 314.886C82.5855 314.269 81.8594 316.866 83.7167 318.755C95.8274 317.365 102.93 310.126 103.72 298.383Z" fill="white"/>
<path d="M130.548 279.89C122.673 278.224 116.959 276.601 111.351 275.007L96.0089 270.647C103.091 267.856 110.487 261.953 112.742 254.018C116.23 241.744 107.011 229.518 92.3036 225.338C77.5959 221.158 63.6258 225.65 59.7167 239.406C56.83 249.563 62.3122 258.44 71.3551 263.64C66.9111 262.377 62.2855 260.948 56.4804 258.841L55.428 262.545C63.3025 264.211 69.0162 265.835 74.6241 267.428L110.6 277.652C116.208 279.246 121.921 280.87 129.495 283.594L130.548 279.89ZM111.684 253.717C109.459 261.547 101.927 267.526 94.9508 270.346L80.0315 266.106C67.2285 262.468 57.0461 252.827 60.7748 239.706C64.5035 226.586 77.4345 224.543 91.4014 228.512C105.368 232.482 114.992 242.078 111.684 253.717Z" fill="white"/>
<path d="M133.463 208.001C141.402 194.04 135.899 179.016 122.607 171.458C109.316 163.901 93.5908 166.854 85.6523 180.814C77.7137 194.775 83.2167 209.799 96.5081 217.357C109.8 224.915 125.525 221.962 133.463 208.001ZM132.507 207.457C124.895 220.844 110.761 221.666 98.1393 214.488C85.5172 207.311 78.9962 194.745 86.6085 181.358C94.2207 167.971 108.354 167.15 120.976 174.327C133.598 181.504 140.119 194.07 132.507 207.457Z" fill="white"/>
<path d="M174.932 153.262C167.06 146.706 164.319 144.161 160.046 140.195L150.291 131.14C140.456 122.01 132.717 121.13 125.757 128.628C118.947 135.964 119.818 146.828 122.313 153.196C119.646 150.571 116.819 147.796 113.899 144.636L111.28 147.457C116.733 151.769 121.087 155.81 125.359 159.777L135.034 168.757C139.307 172.723 143.66 176.764 148.365 181.882L150.984 179.061C145.531 174.749 141.178 170.708 136.905 166.741L127.23 157.761L123.764 154.543C121.431 148.325 119.304 137.196 126.339 129.618C132.102 123.41 139.391 124.773 148.42 133.155L158.175 142.21C162.448 146.177 165.189 148.721 172.313 156.084L174.932 153.262Z" fill="white"/>
<path d="M198.105 139.722C206.241 133.891 207.622 125.999 203.265 119.919C198.587 113.392 192.513 113.415 180.994 114.904C170.357 116.302 162.278 117.492 158.433 112.127C155.101 107.478 157.228 102.705 162.772 98.7319C170.014 93.5414 175.593 96.0387 179.652 99.6254C182.956 102.536 185.483 99.6415 184.33 98.0322C175.641 93.8392 169.105 92.8396 162.131 97.8379C155.783 102.388 153.056 108.402 157.029 113.945C161.194 119.757 167.537 119.542 179.145 117.989C191.393 116.383 197.311 115.389 201.477 121.201C205.386 126.654 205.064 133.381 197.464 138.828C187.987 145.62 178.291 143.232 174.636 137.19C172.406 133.511 169.939 134.601 169.662 137.236C178.435 145.7 188.539 146.579 198.105 139.722Z" fill="white"/>
<path d="M192.242 59.5008L186.317 57.5997L184.416 63.5247L190.341 65.4258L192.242 59.5008ZM222.281 123.216C218.623 117.305 215.907 112.022 213.241 106.837L207.205 95.0982C204.539 89.9134 201.823 84.6308 199.144 78.2162L195.72 79.9766C199.378 85.8882 202.094 91.1709 204.76 96.3557L210.795 108.095C213.461 113.28 216.177 118.562 218.857 124.977L222.281 123.216Z" fill="white"/>
<path d="M257.719 109.248C256.566 107.199 256.7 105.181 256.936 102.432L259.292 72.1629C259.864 64.8913 256.719 59.3339 254.73 56.8694C252.887 57.2569 252.161 58.8937 253.799 60.3156C255.438 61.7375 258.852 63.6069 258.144 72.2007L255.521 106.506L226.181 73.7803C224.506 71.9063 223.041 70.31 221.678 67.983L217.82 69.2801C220.192 71.5002 221.83 72.9221 223.54 74.9003L254.904 110.195L257.719 109.248Z" fill="white"/>
<path d="M300.224 103.572C312.351 102.153 318.224 92.7164 319.755 80.2439L318.662 80.3718C316.991 91.6424 312.005 101.086 300.096 102.479C285.893 104.141 277.064 92.106 275.504 78.7769C275.185 76.0456 275.109 73.5072 275.265 71.0524L315.034 66.3988C313.896 56.6751 305.74 47.5512 292.52 49.0981C279.3 50.6451 270.322 62.8816 272.227 79.1605C274.132 95.4394 285.365 105.311 300.224 103.572ZM275.356 69.9343C276.519 59.0554 282.597 51.3669 292.648 50.1907C304.12 48.8483 310.58 56.7309 311.628 65.6898L275.356 69.9343Z" fill="white"/>
<path d="M396.828 91.6018C395.612 77.9441 390.076 71.4378 382.675 67.6189C397.724 70.5384 410.896 68.1666 415.221 52.1297C420.091 34.0748 406.617 25.314 389.2 20.6163L376.455 17.179C374.322 27.1993 373.348 30.8102 371.83 36.4391L359.226 83.1693C357.708 88.7982 356.734 92.4091 353.539 102.143L357.257 103.146C359.39 93.1252 360.363 89.5143 361.882 83.8854L367.324 63.7065L372.634 65.1387C384.529 68.3469 392.534 74.1516 394.234 91.9275C395.645 106.549 397.721 114.059 412.165 117.955L412.451 116.893C402.149 114.114 398.324 108.867 396.828 91.6018ZM379.355 19.1004L388.913 21.6784C403.145 25.5167 416.761 33.7465 412.035 51.2703C407.309 68.7942 391.4 69.0608 377.169 65.2224L367.61 62.6444L379.355 19.1004Z" fill="white"/>
<path d="M430.954 133.946C441.584 139.953 451.893 135.797 460.485 126.628L459.527 126.087C451.53 134.202 441.934 138.887 431.495 132.989C419.045 125.954 419.014 111.027 425.616 99.3437C426.969 96.9495 428.405 94.8551 429.979 92.9646L464.839 112.663C469.655 104.139 468.45 91.961 456.862 85.413C445.274 78.8651 430.806 83.4508 422.743 97.7203C414.68 111.99 417.929 126.587 430.954 133.946ZM430.712 92.1152C438.068 84.0162 447.51 81.3921 456.321 86.3707C466.377 92.0528 466.944 102.229 462.507 110.081L430.712 92.1152Z" fill="white"/>
<path d="M463.65 158.311C472.709 166.496 483.121 164.489 490.883 159.345C487.859 162.691 485.36 165.622 481.04 171.059L483.897 173.64C487.318 167.392 491.301 162.984 495.947 157.842L508.188 144.294C515.113 136.466 513.745 129.448 507.133 123.475C500.441 117.428 490.903 115.185 482.451 114.367C480.77 116.555 483.064 118.776 486.326 118.61C489.9 118.429 497.336 116.105 506.396 124.291C512.191 129.527 511.826 136.165 505.853 142.776C501.281 147.837 494.667 143.343 487.171 138.349C476.776 131.477 467.844 128.893 460.765 136.728C454.57 143.584 456.875 152.19 463.65 158.311ZM464.632 157.716C458.755 152.406 457.682 145.062 463.213 138.94C469.26 132.248 476.92 132.794 486.433 139.166C493.203 143.651 498.355 146.973 503.198 145.715L496.635 152.979C486.827 163.834 473.855 166.049 464.632 157.716Z" fill="white"/>
<path d="M498.516 198.346C506.221 209.199 518.693 207.764 528.485 204.455L527.848 203.558C518.62 206.332 506.991 208.383 499.413 197.709C491.453 186.498 498.216 173.602 509.158 165.833C521.895 156.79 534.505 155.931 542.402 167.053C549.216 176.65 543.389 184.025 541.491 185.912C539.388 188.08 540.913 191.179 543.063 190.597C546.954 184.866 549.539 175.206 543.299 166.416C535.02 154.756 520.612 153.654 507.248 163.142C493.884 172.631 490.174 186.596 498.516 198.346Z" fill="white"/>
<path d="M518.06 235.732C520.73 241.648 527.607 243.251 546.586 237.705L546.134 236.703C528.002 241.987 521.461 240.594 519.154 235.481C517.434 231.671 519.066 227.797 530.596 222.594L562.882 208.027L569.306 222.265L570.309 221.813L561.171 201.559C567.562 207.967 576.621 204.242 585.044 200.442L583.913 197.935C573.585 202.595 564.021 207.876 558.321 195.242L557.868 194.239L556.865 194.692L561.751 205.521L529.465 220.088C517.032 225.697 515.934 231.02 518.06 235.732Z" fill="white"/>
<path d="M535.201 308.462C536.304 320.622 544.011 330.084 557.924 328.821C569.974 327.728 575.613 318.048 587.815 300.373C596.312 288.115 599.858 279.73 610.266 278.786C618.701 278.02 624.626 283.668 625.55 293.856C626.803 307.659 617.361 314.37 608.129 316.091L609.622 320.374C621.205 314.131 627.71 305.478 626.646 293.756C625.612 282.363 619.05 275.779 609.19 276.674C599.331 277.569 595.934 283.952 586.082 298.321C574.856 314.583 568.68 325.636 557.725 326.63C544.141 327.863 537.29 319.317 536.296 308.362C534.994 294.011 545.582 281.674 563.05 279.426L561.557 275.143C540.005 282.29 533.988 295.097 535.201 308.462Z" fill="white"/>
<path d="M606.381 349.016L611.132 344.997L607.114 340.247L602.363 344.265L606.381 349.016ZM536.427 340.745C543.379 340.774 549.298 341.268 555.108 341.753L568.262 342.852C574.072 343.337 579.991 343.832 586.851 344.956L587.172 341.12C580.22 341.091 574.301 340.597 568.491 340.111L555.337 339.013C549.527 338.528 543.608 338.033 536.747 336.908L536.427 340.745Z" fill="white"/>
<path d="M528.174 372.157C526.749 378.488 531.281 383.905 549.78 390.886L550.021 389.813C532.357 383.133 527.967 378.086 529.199 372.613C530.116 368.535 533.749 366.421 546.091 369.198L580.647 376.973L577.218 392.212L578.291 392.453L583.169 370.775C584.422 379.739 593.9 382.21 602.915 384.238L603.519 381.555C592.465 379.068 581.647 377.536 584.69 364.014L584.931 362.941L583.858 362.7L581.25 374.29L546.694 366.515C533.387 363.52 529.309 367.113 528.174 372.157Z" fill="white"/>
<path d="M514.206 412.394C509.265 423.56 514.407 433.414 524.37 441.071L524.815 440.065C515.958 432.898 510.36 423.804 515.212 412.84C521 399.763 535.852 398.277 548.124 403.708C550.638 404.821 552.863 406.046 554.898 407.428L538.693 444.042C547.646 448.004 559.648 445.618 565.035 433.446C570.422 421.275 564.447 407.323 549.459 400.69C534.471 394.057 520.261 398.714 514.206 412.394ZM555.815 408.074C564.592 414.605 568.125 423.747 564.029 433.001C559.355 443.563 549.283 445.12 541.035 441.47L555.815 408.074Z" fill="white"/>
</svg>
