<svg width="677" height="588" viewBox="0 0 677 588" fill="none" xmlns="http://www.w3.org/2000/svg">
<path d="M99.6925 199.103C113.257 196.976 119.406 191.02 122.753 183.386C120.788 198.584 123.989 211.557 140.281 214.794C158.622 218.438 166.521 204.419 170.113 186.74L172.74 173.804C162.597 172.349 158.929 171.621 153.21 170.484L105.738 161.052C100.02 159.916 96.3518 159.187 86.4274 156.655L85.661 160.428C95.8043 161.882 99.4726 162.611 105.191 163.747L125.69 167.82L124.595 173.21C122.143 185.284 116.851 193.653 99.2032 196.539C84.6877 198.926 77.318 201.499 74.3399 216.16L75.4188 216.374C77.5429 205.917 82.5422 201.752 99.6925 199.103ZM171.004 176.824L169.034 186.525C166.099 200.97 158.74 215.097 140.938 211.56C123.136 208.023 121.864 192.181 124.798 177.737L126.769 168.035L171.004 176.824Z" fill="white"/>
<path d="M74.7713 258.222C75.9019 270.38 85.1948 276.46 97.6253 278.264L97.5235 277.169C86.2976 275.25 76.9767 270.057 75.8664 258.119C74.5422 243.88 86.7818 235.316 100.142 234.049C102.88 233.79 105.419 233.77 107.869 233.979L111.576 273.847C121.323 272.923 130.636 264.968 129.403 251.716C128.171 238.463 116.153 229.216 99.8363 230.763C83.5195 232.311 73.386 243.327 74.7713 258.222ZM108.984 234.095C119.83 235.497 127.371 241.743 128.308 251.819C129.378 263.32 121.345 269.606 112.366 270.458L108.984 234.095Z" fill="white"/>
<path d="M87.6749 315.936C90.9345 325.401 98.1025 328.986 105.176 326.555C112.771 323.945 114.488 318.121 116.358 306.661C118.063 296.072 119.236 287.992 125.477 285.847C130.887 283.988 134.852 287.395 137.073 293.843C139.974 302.267 135.984 306.895 131.384 309.755C127.65 312.086 129.7 315.336 131.572 314.692C138.078 307.571 140.907 301.598 138.113 293.485C135.57 286.101 130.587 281.765 124.137 283.982C117.375 286.305 115.765 292.442 113.931 304.006C111.964 316.197 111.222 322.151 104.46 324.475C98.1143 326.655 91.7598 324.419 88.7152 315.579C84.9183 304.554 89.983 295.951 96.8199 294.183C100.985 293.101 100.645 290.426 98.1994 289.406C87.5766 295.383 83.8422 304.808 87.6749 315.936Z" fill="white"/>
<path d="M82.5855 365.052C89.0297 360.233 94.0185 357.008 98.9149 353.844L112.311 345.186C109.749 352.343 109.329 361.782 113.829 368.697C120.788 379.393 136.081 380.51 148.923 372.211C161.765 363.911 167.58 350.461 159.781 338.475C154.022 329.623 143.716 327.902 133.836 331.274C137.717 328.767 141.842 326.232 147.255 323.257L145.155 320.03C138.711 324.85 133.722 328.074 128.826 331.238L97.4151 351.539C92.5187 354.703 87.5299 357.928 80.4859 361.825L82.5855 365.052ZM114.752 368.1C110.313 361.277 110.765 351.686 113.235 344.589L126.261 336.17C137.439 328.946 151.418 327.639 158.857 339.072C166.296 350.505 159.318 361.563 147.123 369.445C134.928 377.326 121.351 378.242 114.752 368.1Z" fill="white"/>
<path d="M157.823 419.254C169.964 429.767 185.819 427.344 195.884 415.834C205.95 404.325 206.171 388.365 194.03 377.852C181.888 367.339 166.034 369.762 155.969 381.272C145.903 392.781 145.682 408.741 157.823 419.254ZM158.547 418.426C146.905 408.345 148.905 394.362 158.463 383.432C168.022 372.502 181.663 368.599 193.305 378.68C204.947 388.761 202.948 402.744 193.39 413.674C183.831 424.604 170.189 428.507 158.547 418.426Z" fill="white"/>
<path d="M231.622 462.167C235.573 452.718 237.199 449.35 239.733 444.1L245.52 432.114C251.354 420.028 249.909 412.395 240.673 407.996C231.636 403.692 221.491 407.754 216.131 412.024C217.857 408.704 219.677 405.185 221.841 401.463L218.365 399.808C215.848 406.285 213.266 411.634 210.731 416.885L204.993 428.772C202.458 434.022 199.876 439.371 196.366 445.376L199.842 447.031C202.358 440.554 204.941 435.205 207.475 429.954L213.214 418.067L215.27 413.808C220.534 409.735 230.562 404.399 239.897 408.845C247.544 412.487 248.393 419.836 243.037 430.931L237.25 442.917C234.716 448.168 233.09 451.536 228.146 460.512L231.622 462.167Z" fill="white"/>
<path d="M270.419 475.241C280.206 477.341 287 473.062 288.602 465.755C290.321 457.911 286.235 453.434 277.41 445.915C269.245 438.987 262.947 433.81 264.36 427.364C265.585 421.776 270.56 420.144 277.228 421.575C285.94 423.445 287.82 429.249 287.873 434.66C287.922 439.058 291.767 438.984 292.191 437.049C289.488 427.806 285.852 422.301 277.463 420.5C269.827 418.862 263.528 420.885 262.068 427.547C260.537 434.531 264.946 439.077 273.878 446.619C283.277 454.599 287.982 458.309 286.451 465.293C285.014 471.848 279.797 476.128 270.655 474.166C259.254 471.719 254.534 462.943 256.579 456.182C257.82 452.061 255.357 450.97 253.212 452.534C252.796 464.708 258.911 472.771 270.419 475.241Z" fill="white"/>
<path d="M317.334 407.826L313.132 403.249L308.542 407.464L312.744 412.041L317.334 407.826ZM311.807 478.057C311.564 471.112 311.826 465.177 312.083 459.353L312.666 446.166C312.924 440.342 313.186 434.407 314.042 427.507L310.195 427.349C310.439 434.295 310.176 440.229 309.919 446.053L309.336 459.24C309.078 465.065 308.816 470.999 307.96 477.899L311.807 478.057Z" fill="white"/>
<path d="M357.9 475.468C357.161 473.237 357.678 471.281 358.436 468.627L366.539 439.351C368.491 432.319 366.468 426.264 364.987 423.466C363.105 423.496 362.079 424.966 363.415 426.673C364.751 428.381 367.744 430.865 365.405 439.17L356.267 472.358L333.736 434.647C332.451 432.488 331.319 430.642 330.426 428.098L326.393 428.639C328.295 431.269 329.631 432.977 330.93 435.245L354.957 475.863L357.9 475.468Z" fill="white"/>
<path d="M413.041 462.721C424.408 458.263 427.677 447.646 425.97 435.199L424.946 435.601C426.21 446.921 423.8 457.319 412.638 461.698C399.326 466.92 387.711 457.533 382.797 445.045C381.789 442.487 381.068 440.052 380.591 437.639L417.866 423.017C414.28 413.908 404.061 407.164 391.67 412.025C379.279 416.885 373.722 430.999 379.725 446.251C385.727 461.502 399.114 468.185 413.041 462.721ZM380.393 436.536C378.738 425.723 382.652 416.744 392.073 413.048C402.825 408.83 411.087 414.806 414.391 423.199L380.393 436.536Z" fill="white"/>
<path d="M499.018 402.066C497.449 401.471 496.659 400.863 495.859 399.634L457.726 332.972C455.638 329.281 454.444 327.826 452.811 323.352L451.278 324.929C454.138 328.142 454.795 330.149 456.962 333.916L495.256 400.886L426.981 364.755C423.127 362.723 421.32 361.899 418 359.159L414.78 362.472C419.326 363.949 421.133 364.773 424.987 366.806L496.487 404.669L499.018 402.066Z" fill="white"/>
<path d="M537.173 354.316C541.854 345.718 538.498 335.547 534.545 329.926C537.205 331.48 540.156 333.191 544.649 335.981L546.227 333.082L501.656 309.127L499.816 312.509C509.353 316.386 512.647 318.156 517.782 320.916L533.479 329.353C537.238 334.87 541.253 344.52 536.362 353.506C532.313 360.945 524.897 361.455 514.045 355.622L484.88 339.947L483.039 343.329C492.576 347.206 495.871 348.976 501.006 351.736L512.73 358.038C524.551 364.391 532.282 363.301 537.173 354.316Z" fill="white"/>
<path d="M562.239 290.577C565.185 278.727 558.415 269.943 547.269 264.169L547.004 265.236C556.974 270.724 564.064 278.68 561.17 290.316C557.72 304.193 543.331 308.27 530.293 305.091C527.621 304.44 525.216 303.627 522.971 302.627L532.633 263.77C523.122 261.45 511.698 265.911 508.486 278.828C505.274 291.744 513.573 304.411 529.496 308.294C545.42 312.177 558.629 305.094 562.239 290.577ZM521.956 302.152C512.173 297.276 507.113 288.909 509.555 279.088C512.342 267.88 522.005 264.575 530.768 266.712L521.956 302.152Z" fill="white"/>
<path d="M564.541 185.795C562.389 173.776 553.893 165.023 540.144 167.498C528.236 169.642 523.458 179.779 512.833 198.457C505.431 211.414 502.624 220.078 492.34 221.93C484.004 223.431 477.613 218.322 475.81 208.252C473.367 194.609 482.191 187.097 491.238 184.574L489.38 180.438C478.383 187.671 472.653 196.861 474.728 208.447C476.744 219.708 483.85 225.694 493.593 223.939C503.337 222.185 506.168 215.528 514.737 200.35C524.511 183.166 529.706 171.613 540.532 169.663C553.956 167.247 561.52 175.162 563.458 185.989C565.998 200.174 556.52 213.393 539.314 217.161L541.172 221.297C562.021 212.29 566.906 199.004 564.541 185.795Z" fill="white"/>
<path d="M482.645 164.941L480.192 170.655L485.914 173.111L488.367 167.397L482.645 164.941ZM548.94 141.119C542.707 144.196 537.189 146.395 531.774 148.554L519.512 153.442C514.096 155.601 508.578 157.8 501.937 159.856L503.367 163.43C509.6 160.354 515.118 158.154 520.533 155.995L532.795 151.108C538.21 148.949 543.728 146.749 550.37 144.694L548.94 141.119Z" fill="white"/>
<path d="M533.214 103.903C529.867 98.3431 522.84 97.5475 504.619 105.243L505.186 106.185C522.595 98.8474 529.263 99.4732 532.156 104.28C534.312 107.861 533.144 111.892 522.288 118.386L491.891 136.569L483.836 123.186L482.892 123.751L494.351 142.788C487.245 137.169 478.673 141.912 470.744 146.655L472.162 149.011C481.885 143.195 490.777 136.851 497.925 148.726L498.492 149.668L499.436 149.103L493.309 138.925L523.706 120.742C535.412 113.74 535.88 108.333 533.214 103.903Z" fill="white"/>
<path d="M498.841 60.7018C490.341 51.9359 479.251 52.9819 468.38 59.3099L469.146 60.0996C479.145 54.61 489.701 52.856 498.048 61.464C508.002 71.7304 503.774 86.0153 494.097 95.314C492.114 97.2194 490.137 98.8145 488.086 100.175L460.213 71.4295C453.154 78.2129 450.837 90.203 460.103 99.7587C469.368 109.314 484.576 109.04 496.394 97.6831C508.212 86.3266 509.255 71.4421 498.841 60.7018ZM487.139 100.78C477.761 106.435 467.94 106.262 460.896 98.9965C452.856 90.7044 455.214 80.8107 461.717 74.5608L487.139 100.78Z" fill="white"/>
</svg>
