<svg width="651" height="707" viewBox="0 0 651 707" fill="none" xmlns="http://www.w3.org/2000/svg">
<path d="M114.853 247.131C101.586 243.665 93.5931 246.681 87.5004 252.359C95.3277 239.178 97.5408 225.979 83.9046 216.494C68.5527 205.817 55.7586 215.543 45.458 230.353L37.921 241.19C46.6334 246.58 49.7038 248.715 54.49 252.044L94.2244 279.68C99.0106 283.008 102.081 285.144 110.165 291.437L112.364 288.276C103.651 282.886 100.581 280.751 95.7947 277.422L78.6366 265.488L81.777 260.973C88.8116 250.859 96.9773 245.283 114.284 249.683C128.524 253.289 136.294 253.87 144.836 241.588L143.933 240.96C137.84 249.72 131.61 251.55 114.853 247.131ZM40.7083 239.109L46.361 230.981C54.7774 218.88 67.12 208.84 82.0204 219.204C96.9208 229.567 91.8026 244.632 83.3863 256.733L77.7335 264.86L40.7083 239.109Z" fill="white"/>
<path d="M168.674 229.161C178.368 221.736 178.585 210.623 173.518 199.124L172.645 199.793C176.976 210.332 177.524 220.997 168.005 228.288C156.653 236.983 142.909 231.16 134.749 220.506C133.077 218.323 131.713 216.18 130.591 213.992L162.378 189.645C156.425 181.872 144.749 178.206 134.182 186.3C123.616 194.393 122.163 209.501 132.129 222.513C142.095 235.524 156.798 238.258 168.674 229.161ZM130.097 212.985C125.53 203.042 126.817 193.327 134.851 187.173C144.021 180.15 153.604 183.617 159.089 190.778L130.097 212.985Z" fill="white"/>
<path d="M208.59 207.507C217.803 203.594 220.875 196.194 217.951 189.31C214.812 181.919 208.88 180.614 197.313 179.551C186.628 178.592 178.484 177.987 175.904 171.913C173.668 166.648 176.787 162.455 183.064 159.789C191.265 156.305 196.164 159.961 199.342 164.348C201.93 167.91 205.028 165.638 204.254 163.815C196.691 157.825 190.531 155.422 182.634 158.776C175.445 161.829 171.471 167.103 174.137 173.38C176.932 179.961 183.168 181.137 194.835 182.157C207.138 183.266 213.131 183.589 215.926 190.17C218.549 196.346 216.766 202.84 208.16 206.495C197.428 211.053 188.487 206.604 186.241 199.909C184.868 195.832 182.223 196.358 181.377 198.868C188.089 209.044 197.756 212.108 208.59 207.507Z" fill="white"/>
<path d="M237.311 223.177C235.622 215.307 234.776 209.428 233.945 203.657L231.671 187.87C237.107 193.2 245.512 197.546 253.678 196.37C266.307 194.552 273.713 181.149 271.533 166.016C269.354 150.882 259.557 139.956 245.403 141.995C234.951 143.5 229.08 152.125 228.018 162.502C227.36 157.929 226.779 153.123 226.336 146.963L222.526 147.512C224.215 155.381 225.061 161.261 225.892 167.031L231.223 204.049C232.054 209.82 232.901 215.699 233.501 223.726L237.311 223.177ZM253.521 195.282C245.464 196.442 236.934 192.002 231.515 186.781L229.304 171.43C227.407 158.256 232.059 145.028 245.56 143.083C259.06 141.139 266.198 152.114 268.267 166.486C270.337 180.858 265.497 193.557 253.521 195.282Z" fill="white"/>
<path d="M305.596 198C321.468 200.45 333.55 189.961 335.883 174.85C338.216 159.739 329.86 146.094 313.988 143.644C298.116 141.193 286.034 151.683 283.701 166.794C281.368 181.905 289.724 195.549 305.596 198ZM305.764 196.913C290.544 194.563 284.747 181.647 286.962 167.297C289.178 152.947 298.6 142.381 313.82 144.731C329.04 147.081 334.837 159.996 332.621 174.346C330.406 188.696 320.983 199.262 305.764 196.913Z" fill="white"/>
<path d="M372.339 220.012C376.183 210.516 377.77 207.13 380.245 201.851L385.894 189.799C391.59 177.648 390.068 170.01 380.805 165.668C371.741 161.419 361.66 165.562 356.356 169.879C358.043 166.54 359.823 163.001 361.943 159.256L358.457 157.622C356.013 164.131 353.492 169.509 351.018 174.788L345.416 186.74C342.941 192.019 340.42 197.397 336.981 203.439L340.467 205.073C342.91 198.564 345.431 193.186 347.906 187.907L353.508 175.955L355.516 171.672C360.726 167.554 370.677 162.135 380.039 166.524C387.708 170.119 388.633 177.477 383.404 188.632L377.755 200.684C375.28 205.963 373.693 209.349 368.853 218.378L372.339 220.012Z" fill="white"/>
<path d="M392.876 239.645C400.622 245.985 408.602 245.267 413.34 239.478C418.426 233.264 416.824 227.405 412.391 216.67C408.276 206.762 405.026 199.27 409.206 194.162C412.829 189.736 417.991 190.549 423.269 194.869C430.164 200.512 429.203 206.549 426.796 211.401C424.845 215.348 428.296 217.036 429.55 215.504C431.34 206.023 430.605 199.452 423.966 194.018C417.922 189.071 411.405 188.002 407.086 193.28C402.557 198.813 404.414 204.881 408.932 215.686C413.667 227.095 416.166 232.552 411.637 238.085C407.387 243.277 400.808 244.716 393.573 238.794C384.55 231.409 384.335 221.425 389.219 216.325C392.192 213.214 390.497 211.117 387.881 211.534C381.989 222.206 383.768 232.19 392.876 239.645Z" fill="white"/>
<path d="M470.898 216.347L471.406 210.145L465.204 209.637L464.696 215.839L470.898 216.347ZM415.653 260.051C420.581 255.147 425.11 251.304 429.556 247.532L439.621 238.992C444.066 235.22 448.595 231.377 454.235 227.312L451.744 224.377C446.816 229.28 442.287 233.123 437.841 236.895L427.776 245.435C423.331 249.207 418.802 253.051 413.162 257.115L415.653 260.051Z" fill="white"/>
<path d="M437.054 292.43C438.843 290.904 440.849 290.647 443.592 290.35L473.749 286.838C480.995 286.001 485.843 281.845 487.879 279.419C487.145 277.685 485.399 277.288 484.319 279.169C483.238 281.051 482.061 284.761 473.491 285.719L439.322 289.745L465.792 254.657C467.309 252.653 468.593 250.908 470.614 249.123L468.599 245.587C466.877 248.341 465.797 250.223 464.185 252.281L435.584 289.85L437.054 292.43Z" fill="white"/>
<path d="M450.147 334.621C453.305 346.415 463.491 350.863 476.054 350.574L475.77 349.512C464.376 349.487 454.311 345.918 451.21 334.336C447.512 320.523 458.145 310.047 471.108 306.577C473.765 305.865 476.266 305.424 478.717 305.223L489.071 343.901C498.528 341.37 506.377 331.98 502.935 319.123C499.494 306.266 486.088 299.151 470.255 303.389C454.423 307.627 446.279 320.169 450.147 334.621ZM479.837 305.151C490.77 304.73 499.256 309.632 501.873 319.408C504.86 330.565 497.994 338.096 489.28 340.429L479.837 305.151Z" fill="white"/>
<path d="M450.38 416.786C448.162 428.792 453.029 439.983 466.766 442.522C478.665 444.721 486.706 436.922 503.226 423.195C514.715 413.685 520.393 406.568 530.669 408.467C538.998 410.006 543.179 417.043 541.32 427.103C538.801 440.732 527.898 444.646 518.544 443.812L518.826 448.339C531.664 445.454 540.263 438.877 542.401 427.303C544.48 416.053 539.938 407.943 530.203 406.144C520.468 404.345 515.475 409.575 502.111 420.752C486.913 433.381 477.983 442.357 467.166 440.358C453.753 437.88 449.463 427.802 451.462 416.986C454.081 402.815 467.605 393.793 485.032 396.342L484.75 391.816C462.069 392.882 452.819 403.589 450.38 416.786Z" fill="white"/>
<path d="M505.589 479.101L511.349 476.745L508.993 470.986L503.234 473.341L505.589 479.101ZM441.605 449.639C448.208 451.812 453.686 454.11 459.062 456.365L471.235 461.471C476.611 463.726 482.089 466.023 488.266 469.211L489.756 465.66C483.152 463.487 477.675 461.19 472.298 458.935L460.126 453.829C454.75 451.574 449.272 449.277 443.094 446.089L441.605 449.639Z" fill="white"/>
<path d="M423.243 477.264C419.755 482.738 422.181 489.37 437.215 502.212L437.807 501.284C423.455 489.008 421.038 482.772 424.053 478.041C426.299 474.516 430.433 473.759 441.101 480.557L470.972 499.592L462.578 512.765L463.505 513.356L475.447 494.617C473.585 503.475 481.664 509.014 489.456 513.98L490.934 511.661C481.379 505.572 471.722 500.462 479.171 488.773L479.762 487.845L478.834 487.254L472.45 497.273L442.579 478.238C431.076 470.908 426.021 472.904 423.243 477.264Z" fill="white"/>
<path d="M394.962 510.491C386.132 518.925 387.124 529.995 393.41 540.876L394.205 540.116C388.755 530.11 387.051 519.568 395.721 511.286C406.062 501.409 420.357 505.704 429.627 515.408C431.526 517.396 433.115 519.378 434.468 521.432L405.515 549.089C412.277 556.168 424.282 558.544 433.907 549.35C443.531 540.156 443.334 524.98 432.013 513.128C420.692 501.277 405.779 500.157 394.962 510.491ZM435.069 522.379C440.689 531.766 440.465 541.564 433.147 548.554C424.795 556.532 414.891 554.127 408.661 547.605L435.069 522.379Z" fill="white"/>
<path d="M315.403 552.011C296.166 557.144 286.157 578.941 293.303 605.724C300.421 632.401 319.986 646.421 339.224 641.288C358.567 636.127 368.441 614.252 361.324 587.575C354.178 560.792 334.747 546.85 315.403 552.011ZM315.687 553.074C333.861 548.225 351.585 563.875 358.135 588.426C364.657 612.871 357.114 635.376 338.94 640.225C320.872 645.046 303.014 629.318 296.492 604.873C289.941 580.322 297.619 557.895 315.687 553.074Z" fill="white"/>
<path d="M223.269 554.37L219.443 558.926C229.368 558.257 239.037 558.889 249.204 560.018L275.006 562.884C262.434 581.409 248.89 587.763 238.492 594.687C227.632 601.782 216.858 609.107 215.51 621.243C214.016 634.69 223.261 645.124 239.004 646.873C254.529 648.597 265.401 640.397 266.554 630.011C267.562 620.937 262.763 614.317 256.204 609.604L253.531 613.734C258.961 616.661 265.303 621.35 264.368 629.768C263.263 639.717 253.12 647.334 239.126 645.779C225.241 644.237 217.357 634.508 218.79 621.607C220.15 609.362 229.625 602.778 240.375 595.671C251.137 588.455 266.625 579.55 277.824 560.43L223.269 554.37Z" fill="white"/>
</svg>
