<svg width="563" height="430" viewBox="0 0 563 430" fill="none" xmlns="http://www.w3.org/2000/svg">
<path fill-rule="evenodd" clip-rule="evenodd" d="M91.521 35.0202C86.3986 41.5867 78.9802 45.824 65.3335 44.4914C48.0897 42.7668 42.2252 45.5554 37.5886 55.1653L36.5978 54.6873C43.0987 41.2136 50.8629 40.5629 65.4934 41.8816C83.2769 43.5003 90.4624 36.7079 95.8161 25.6119L98.2061 20.6584L79.3826 11.5762C74.1318 9.04281 70.7634 7.41759 61.3108 3.46749L62.9838 0C71.9584 4.94081 75.3268 6.56603 80.5776 9.09947L124.169 30.1317C129.42 32.6652 132.788 34.2904 142.241 38.2405L136.505 50.129C128.665 66.3767 117.563 77.9966 100.721 69.8705C85.761 62.6526 85.8674 49.2691 91.521 35.0202ZM135.514 49.651L139.816 40.7346L99.1968 21.1364L94.8948 30.0528C88.4895 43.3283 85.8081 59.0112 102.155 66.8983C118.502 74.7854 129.109 62.9266 135.514 49.651ZM37.0714 134.563C25.3956 129.917 17.7583 121.842 19.4631 109.752C21.5518 94.9381 33.9506 86.5773 50.1801 88.8657C66.4095 91.1541 75.967 102.944 74.1087 116.124C72.2503 129.303 61.3554 134.877 51.6613 133.51L57.2518 93.862C54.9169 93.0884 52.4424 92.5174 49.7193 92.1334C36.4308 90.2597 22.5489 95.7452 20.5523 109.905C18.8783 121.778 26.7474 128.997 37.2249 133.474L37.0714 134.563ZM73.0194 115.97C74.4324 105.949 68.5379 98.1195 58.3103 94.2334L53.2113 130.396C62.1429 131.655 71.4068 127.407 73.0194 115.97ZM16.78 181.231C17.8979 191.179 24.1116 196.236 31.5448 195.401C39.5246 194.504 42.4697 189.192 46.7929 178.412L47.0407 177.79C50.8879 168.13 53.8077 160.798 60.2293 160.077C65.9135 159.438 69.0407 163.625 69.8023 170.402C70.7974 179.256 65.8944 182.907 60.7825 184.699C56.6299 186.162 57.9221 189.78 59.8897 189.559C67.7908 184.022 71.8536 178.806 70.8954 170.279C70.0232 162.518 66.1051 157.202 59.3278 157.964C52.2225 158.763 49.3142 164.403 45.0033 175.292C44.8537 175.667 44.7069 176.036 44.5625 176.398C40.2884 187.129 38.1722 192.442 31.2991 193.215C24.6311 193.964 18.9173 190.4 17.8731 181.108C16.571 169.521 23.3887 162.224 30.4461 161.985C34.7461 161.834 34.9978 159.149 32.8337 157.621C21.1644 161.146 15.4656 169.535 16.78 181.231ZM19.6511 229.941L19.6494 229.942C14.2157 232.053 8.6792 234.204 1.39412 237.624L0 234.035C7.68421 231.64 13.2211 229.489 18.6554 227.378L53.5173 213.835L53.5175 213.835C58.9518 211.724 64.4886 209.573 71.7744 206.153L73.1685 209.741C67.2673 211.562 62.7159 213.212 58.4094 214.885C68.7588 213.579 78.4855 217.353 82.3094 227.196C87.4875 240.525 79.0537 252.534 64.8014 258.071C50.5491 263.608 35.8218 259.416 31.2013 247.522C28.2138 239.832 30.5523 230.663 34.5188 224.166L19.6512 229.941L19.6511 229.941ZM35.5441 223.767C31.6802 230.225 29.279 239.536 32.2266 247.124C36.6081 258.403 50.0718 260.253 63.6064 254.995C77.141 249.737 86.2232 240.309 81.284 227.594C76.3448 214.88 62.4083 213.331 50.0016 218.151L35.5441 223.767ZM67.7885 317.532C77.7203 330.153 93.71 330.728 105.726 321.272C117.741 311.817 120.942 296.14 111.01 283.519C101.078 270.899 85.0887 270.324 73.0731 279.78C61.0575 289.235 57.8567 304.912 67.7885 317.532ZM68.6529 316.852C59.1293 304.75 63.7034 291.352 75.1139 282.373C86.5244 273.393 100.622 272.098 110.146 284.2C119.669 296.302 115.095 309.7 103.685 318.679C92.2743 327.658 78.1766 328.954 68.6529 316.852ZM151.595 367.699C148.213 372.447 146.043 375.494 140.556 384.145L137.42 381.911C143.803 373.898 145.973 370.852 149.355 366.103L157.077 355.262C164.224 345.228 164.637 337.823 157.738 332.909C149.316 326.91 138.554 330.454 132.688 333.569L129.944 337.422L122.286 348.173C118.904 352.922 115.458 357.76 111.885 363.724L108.749 361.49C113.218 356.165 116.664 351.326 120.046 346.578L127.704 335.826L127.705 335.826C131.087 331.077 134.533 326.239 138.105 320.276L141.241 322.51C138.566 325.714 136.239 328.785 134.04 331.689L134.039 331.69L133.837 331.956C139.83 328.662 150.491 326.397 158.645 332.205C166.977 338.14 167.102 345.927 159.317 356.858L151.595 367.699ZM186.004 410.565C195.332 414.198 202.698 411.046 205.412 404.076C208.326 396.593 204.991 391.517 197.454 382.679L197.018 382.171C190.252 374.276 185.117 368.283 187.462 362.262C189.538 356.932 194.698 356.108 201.053 358.583C209.356 361.816 210.31 367.854 209.522 373.213C208.887 377.57 212.692 378.107 213.41 376.262C212.179 366.693 209.448 360.671 201.452 357.558C194.175 354.724 187.647 355.723 185.172 362.078C182.578 368.741 186.221 373.937 193.86 382.814C194.122 383.121 194.381 383.422 194.634 383.719C202.151 392.49 205.872 396.832 203.362 403.277C200.927 409.53 195.116 412.933 186.403 409.54C175.538 405.309 172.245 395.882 175.312 389.521C177.176 385.643 174.916 384.173 172.557 385.379C170.256 397.35 175.037 406.294 186.004 410.565ZM248.964 349.872L252.453 355.024L247.301 358.513L243.812 353.361L248.964 349.872ZM239.767 405.232L239.767 405.233L239.767 405.233L239.767 405.234C238.666 410.958 237.543 416.79 236.774 423.699L232.994 422.971C234.843 416.27 235.965 410.437 237.067 404.712L239.561 391.75C240.663 386.025 241.785 380.192 242.555 373.283L246.335 374.01C244.486 380.711 243.363 386.544 242.262 392.269L239.768 405.231L239.767 405.232ZM286.414 429.116C285.984 426.804 286.762 424.937 287.873 422.412L299.877 394.525C302.766 387.827 301.584 381.552 300.497 378.577C298.628 378.349 297.412 379.664 298.504 381.539C298.601 381.704 298.709 381.878 298.824 382.062L298.83 382.071L298.83 382.072C300.019 383.971 301.913 386.996 298.778 394.19L285.218 425.81L268.017 385.364L267.873 385.025C266.952 382.853 266.139 380.936 265.628 378.423L261.558 378.405C261.856 378.965 262.137 379.487 262.405 379.982L262.406 379.985L262.407 379.987C263.508 382.027 264.368 383.622 265.156 385.571L283.444 429.102L286.414 429.116ZM368.353 398.834C368.521 411.398 363.977 421.542 352.152 424.586C337.665 428.316 325.201 420.053 321.114 404.181C317.028 388.308 324.271 374.971 337.161 371.652C350.05 368.334 359.364 376.272 361.805 385.753L323.029 395.736C323.207 398.19 323.624 400.695 324.31 403.358C327.656 416.354 338.03 427.086 351.878 423.521C363.489 420.531 367.154 410.501 367.288 399.108L368.353 398.834ZM337.435 372.718C327.635 375.241 322.651 383.68 322.968 394.616L358.335 385.511C356.086 376.776 348.62 369.838 337.435 372.718ZM462.742 371.368C472.11 363.537 475.5 351.814 466.54 341.095C459.408 332.564 449.399 332.613 431.153 332.703L431.136 332.703C429.533 332.711 427.867 332.719 426.134 332.722C423.616 332.721 421.27 332.773 419.077 332.822H419.075H419.074H419.072H419.071H419.07C408.271 333.063 401.174 333.221 395.604 326.558C390.172 320.059 391.441 311.973 399.29 305.412C409.923 296.522 420.816 300.463 427.488 307.072L430.159 303.406C418.432 297.439 407.614 297.019 398.584 304.568C389.807 311.905 388.131 321.048 394.481 328.644C400.246 335.541 406.698 335.481 420.879 335.349C422.316 335.336 423.831 335.322 425.434 335.314C427.699 335.311 429.871 335.291 431.951 335.273H431.956H431.96H431.965H431.969H431.973C448.021 335.131 458.609 335.038 464.852 342.506C473.6 352.971 470.476 363.469 462.036 370.524C450.981 379.766 434.81 378.087 423.015 365.007L420.345 368.673C438.492 382.321 452.446 379.975 462.742 371.368ZM444.894 281.305L451.068 280.527L451.845 286.701L445.672 287.479L444.894 281.305ZM490.087 314.576C494.692 318.151 499.384 321.793 505.195 325.608L502.834 328.649C497.697 323.965 493.005 320.323 488.4 316.748L477.973 308.654C473.367 305.079 468.675 301.436 462.864 297.622L465.225 294.58C470.362 299.264 475.054 302.907 479.659 306.481L490.086 314.576L490.087 314.576ZM532.398 289.812C535.451 284.085 532.52 277.66 516.537 266.021L516.019 266.991C531.277 278.12 534.17 284.15 531.53 289.1C529.564 292.789 525.5 293.863 514.338 287.911L483.084 271.244L490.434 257.462L489.463 256.944L479.008 276.551C480.178 267.576 471.695 262.678 463.542 258.33L462.248 260.757C462.804 261.053 463.36 261.347 463.913 261.638L463.939 261.652L463.941 261.653L463.944 261.655C473.328 266.606 481.899 271.128 475.747 282.665L475.229 283.636L476.2 284.154L481.79 273.671L513.044 290.337C525.08 296.755 529.965 294.374 532.398 289.812ZM541.222 204.803C552.324 210.69 559.039 219.547 556.03 231.381C552.344 245.879 539.11 252.843 523.226 248.805C507.341 244.767 499.121 232.008 502.401 219.108C505.68 206.209 517.116 201.852 526.604 204.264L516.739 243.07C518.976 244.093 521.373 244.929 524.039 245.607C537.045 248.913 551.441 244.969 554.964 231.11C557.918 219.489 550.88 211.458 540.951 205.869L541.222 204.803ZM503.467 219.379C500.973 229.187 505.982 237.611 515.727 242.586L524.725 207.192C515.983 204.969 506.312 208.185 503.467 219.379ZM561.48 101.701C556.5 82.4243 534.783 72.2427 507.944 79.1762C481.211 86.0822 467.037 105.536 472.017 124.813C477.024 144.197 498.82 154.244 525.553 147.338C552.392 140.405 566.487 121.085 561.48 101.701ZM560.415 101.977C565.12 120.189 549.33 137.788 524.727 144.143C500.232 150.472 477.787 142.75 473.082 124.538C468.404 106.432 484.273 88.6995 508.769 82.3713C533.372 76.0156 555.737 83.871 560.415 101.977ZM508.622 26.0527C513.622 23.0544 516.83 21.131 525.32 15.3982L527.3 18.7001C518.244 23.4894 515.037 25.4128 510.037 28.411L510.037 28.4111L453.905 62.0707C464.15 57.9796 476.073 56.4735 488.882 55.59L489.051 58.4387C474.79 57.7559 462.508 59.7337 451.66 63.6737L449.793 60.5605C459.755 55.3563 461.925 54.0552 467.113 50.9438L508.622 26.0527Z" fill="#FFFDFD"/>
</svg>
